<svg width="16" height="16" viewBox="0 0 16 16" xmlns="http://www.w3.org/2000/svg">
  <path fill="#3574F0" d="M8 1.5a6.45 6.45 0 0 1 5.45 3h1.05v3.1l-2.75-1.55.75-.48A5.2 5.2 0 0 0 8 2.75a5.14 5.14 0 0 0-4.12 2.05l-1-.75A6.4 6.4 0 0 1 8 1.5z"/>
  <path fill="#3574F0" d="M1.5 8.4l2.75 1.55-.75.48A5.2 5.2 0 0 0 8 13.25a5.14 5.14 0 0 0 4.12-2.05l1 .75A6.4 6.4 0 0 1 8 14.5a6.45 6.45 0 0 1-5.45-3H1.5V8.4z"/>
  <path fill="#1F2328" d="M5.15 5.45A1.05 1.05 0 0 1 6.2 4.4h3.6a1.05 1.05 0 0 1 1.05 1.05V7.8A1.05 1.05 0 0 1 9.8 8.85H8.2l-1.65 1.3a.45.45 0 0 1-.73-.35v-.95a1.05 1.05 0 0 1-.67-1.05V5.45zm1.05 0V7.8h.6v.85l1.03-.85H9.8V5.45H6.2z"/>
  <path fill="#1F2328" d="M6.8 6.18h2.4v.7H6.8v-.7z"/>
</svg>
